<?xml version="1.0" standalone="no"?>
<!DOCTYPE svg PUBLIC "-//W3C//DTD SVG 20010904//EN"
 "http://www.w3.org/TR/2001/REC-SVG-20010904/DTD/svg10.dtd">
<svg version="1.0" xmlns="http://www.w3.org/2000/svg"
 width="266.000000pt" height="262.000000pt" viewBox="0 0 266.000000 262.000000"
 preserveAspectRatio="xMidYMid meet">

<g transform="translate(0.000000,262.000000) scale(0.100000,-0.100000)"
fill="#000000" stroke="none">
<path d="M1477 2352 c-34 -3 -41 -8 -54 -40 -8 -20 -26 -50 -39 -65 -13 -16
-24 -32 -24 -37 0 -5 -13 -28 -29 -52 -16 -24 -36 -60 -44 -80 -10 -24 -23
-37 -38 -40 -36 -5 -102 -124 -179 -323 -36 -95 -43 -124 -47 -210 -4 -70 -11
-109 -23 -131 -10 -17 -21 -47 -25 -65 -4 -19 -18 -52 -31 -75 -17 -28 -24
-56 -24 -91 0 -52 -11 -68 -71 -106 -25 -15 -27 -23 -34 -104 -3 -49 -2 -99 3
-113 9 -25 -12 -81 -48 -122 -16 -20 -85 -25 -96 -7 -18 30 -93 49 -190 49
-55 1 -121 1 -149 1 -61 1 -110 -19 -150 -61 -26 -27 -30 -38 -28 -81 3 -62
14 -82 64 -119 132 -95 555 -152 880 -120 147 15 272 42 364 80 76 30 87 32
215 33 103 0 150 -4 197 -17 52 -15 67 -16 95 -6 18 7 71 16 118 20 47 4 112
18 145 30 33 13 80 25 105 27 25 3 53 12 63 21 32 29 17 109 -24 128 -70 32
-116 41 -164 33 -98 -16 -299 -29 -308 -20 -5 5 -4 17 2 29 16 31 13 76 -7 98
-10 10 -26 49 -36 86 -10 37 -31 95 -47 128 -16 34 -29 76 -29 93 -1 18 -7 43
-15 57 -8 14 -14 41 -15 60 0 19 -7 66 -16 103 -17 67 -17 69 5 97 27 37 26
42 -3 99 -17 31 -30 81 -39 151 -13 95 -25 146 -47 191 -6 11 1 20 28 35 45
24 92 88 92 125 0 25 4 29 38 34 20 3 49 8 65 10 26 4 89 -5 166 -25 35 -9 71
1 71 22 0 16 -78 84 -130 112 -25 14 -83 37 -128 52 -71 22 -84 31 -103 62
-13 21 -24 39 -26 42 -5 5 -203 7 -256 2z m158 -13 c37 7 89 4 92 -5 2 -6 -11
-16 -29 -22 l-33 -11 36 5 c22 4 40 1 43 -5 4 -7 -1 -11 -13 -11 -11 0 -23 -4
-26 -10 -4 -6 6 -7 25 -4 35 8 40 -8 8 -25 -22 -11 -22 -11 2 -4 78 22 249
-46 351 -139 28 -27 23 -38 -17 -38 -31 0 -35 2 -24 15 8 9 9 15 2 15 -6 0
-14 -4 -17 -10 -3 -5 -13 -10 -22 -10 -13 0 -13 2 -2 17 13 15 12 15 -8 5 -12
-7 -30 -12 -40 -12 -17 1 -17 1 0 14 25 19 21 29 -6 12 -24 -16 -71 -21 -152
-18 -48 3 -49 3 -30 19 l20 16 -20 -8 c-11 -3 -36 -8 -55 -11 l-35 -4 40 15
40 14 -45 -2 c-33 -1 -46 -6 -48 -19 -4 -21 32 -58 56 -58 13 1 11 4 -8 16
-14 8 -17 13 -7 10 10 -3 27 -6 38 -6 33 0 25 -62 -13 -106 -57 -65 -121 -78
-229 -48 -59 17 -115 12 -103 -7 8 -13 170 -89 190 -89 8 0 14 -4 14 -10 0
-15 -100 -12 -156 5 -27 8 -51 15 -53 15 -11 0 30 -37 66 -60 31 -20 39 -30
32 -41 -15 -25 -10 -30 11 -9 29 29 27 33 -21 58 -26 13 -34 20 -19 17 67 -15
121 -17 150 -5 29 12 41 30 20 30 -9 0 -76 29 -160 68 -23 11 -22 11 10 5 19
-4 60 -7 90 -8 63 0 80 -8 80 -36 0 -11 7 -33 15 -48 8 -16 20 -80 27 -142 9
-82 17 -119 30 -133 40 -44 33 -74 -24 -109 -20 -12 -57 -35 -82 -51 -26 -15
-60 -29 -77 -30 -28 -1 -35 5 -70 62 -21 34 -53 91 -71 125 -32 59 -133 175
-144 165 -3 -3 -20 -2 -39 2 -45 10 -66 -10 -45 -43 8 -12 17 -52 21 -89 8
-84 45 -145 135 -222 l65 -56 -75 -37 c-42 -21 -76 -41 -76 -46 0 -17 213 31
256 58 18 12 26 10 61 -13 21 -15 49 -37 61 -50 23 -23 47 -29 57 -12 3 6 -1
7 -10 4 -8 -4 -22 -1 -30 6 -26 22 -17 44 24 62 22 10 42 26 46 38 3 11 10 20
15 20 5 0 7 -7 4 -15 -4 -8 -1 -15 5 -15 6 0 11 -17 11 -39 0 -21 7 -55 15
-74 8 -20 15 -51 15 -69 0 -18 8 -47 18 -63 38 -62 81 -205 63 -205 -5 0 -24
12 -41 26 -41 35 -51 23 -12 -16 18 -18 41 -30 56 -30 26 0 46 -24 46 -54 0
-11 -10 -17 -32 -18 l-33 -1 32 -4 c30 -4 31 -6 21 -29 -20 -43 -2 -48 112
-35 55 6 113 11 128 10 25 -1 24 -2 -8 -10 -19 -5 -51 -16 -70 -24 -19 -7 -56
-17 -82 -20 -32 -4 -67 -20 -110 -49 -92 -63 -101 -66 -205 -82 -52 -8 -134
-30 -183 -48 -121 -47 -253 -74 -430 -88 -384 -30 -848 64 -876 178 -15 57 -9
102 15 128 30 32 97 58 147 57 22 0 86 -1 143 -1 83 -1 112 -5 147 -22 24 -11
41 -24 38 -29 -3 -5 20 -9 50 -9 40 0 57 4 64 16 8 14 35 17 198 17 l189 1
-175 3 c-240 5 -247 22 -10 25 l185 2 -173 6 c-105 3 -172 9 -172 15 1 6 32 9
78 8 l77 -1 -70 11 c-78 13 -91 28 -43 53 24 13 28 18 17 26 -11 7 -9 8 6 4
11 -3 26 -2 33 3 21 13 -15 23 -38 11 -10 -6 -28 -10 -40 -10 -21 0 -22 3 -15
73 5 62 10 75 33 94 69 56 72 61 72 108 0 41 21 102 40 115 4 3 10 22 13 43 3
21 15 53 27 70 l21 32 -3 -37 c-2 -21 -2 -35 1 -32 3 3 6 65 6 137 0 132 0
132 43 239 23 58 42 110 42 115 0 5 17 39 38 77 20 37 45 83 55 102 12 24 24
34 41 34 13 0 27 -6 29 -12 3 -7 6 -1 6 14 1 28 18 79 29 88 11 8 31 41 48 80
9 19 24 44 34 55 9 11 24 34 31 50 12 26 21 31 64 36 28 4 68 4 90 1 22 -3 45
-4 50 -3z m-770 -1499 c-3 -5 -12 -10 -20 -10 -8 0 -17 5 -20 10 -4 6 5 10 20
10 15 0 24 -4 20 -10z m1451 -152 c25 -7 57 -23 71 -36 21 -20 24 -28 18 -60
-9 -50 -11 -52 -54 -52 -21 0 -70 -12 -107 -26 -45 -17 -95 -27 -145 -30 -42
-2 -95 -11 -119 -19 -39 -14 -49 -14 -94 -1 -28 8 -85 18 -126 22 -70 7 -72 8
-38 16 21 4 73 25 115 47 48 24 109 45 160 54 45 9 95 23 112 31 16 9 46 16
65 16 19 0 47 5 63 11 20 8 39 7 68 -1 57 -17 68 -24 82 -51 8 -14 13 -18 13
-9 1 75 -153 95 -305 40 -28 -10 -73 -21 -100 -25 -28 -4 -60 -12 -73 -16 -14
-5 -21 -5 -18 0 3 5 30 14 58 20 68 15 184 50 223 67 39 16 74 17 131 2z"/>
<path d="M1450 2311 c0 -7 9 -24 20 -38 15 -19 20 -40 19 -82 l-1 -56 -9 40
c-5 22 -13 43 -18 48 -18 18 20 -99 44 -132 36 -52 82 -101 96 -101 6 0 1 9
-12 20 l-24 19 30 1 30 0 -37 30 c-45 37 -78 104 -78 158 0 23 -6 44 -13 49
-7 4 -21 19 -30 33 -9 13 -17 19 -17 11z"/>
<path d="M1492 2300 c0 -14 2 -19 5 -12 2 6 2 18 0 25 -3 6 -5 1 -5 -13z"/>
<path d="M1616 2271 c-38 -73 -5 -212 59 -247 19 -10 37 -15 41 -11 4 4 1 7
-8 7 -57 0 -114 183 -77 252 6 11 8 22 6 25 -3 3 -13 -9 -21 -26z"/>
<path d="M1652 2237 c-47 -56 4 -198 70 -197 20 1 18 3 -10 15 -52 23 -81 121
-52 176 12 22 8 25 -8 6z"/>
<path d="M1254 1951 c33 -35 140 -91 173 -91 38 0 19 15 -54 45 -38 15 -82 38
-100 51 -43 33 -53 30 -19 -5z"/>
<path d="M1185 1870 l-20 -9 20 1 c11 0 34 4 50 8 l30 8 -30 0 c-16 0 -39 -3
-50 -8z"/>
<path d="M1210 1843 c0 -5 22 -8 49 -8 27 0 47 3 44 8 -2 4 -24 7 -49 7 -24 0
-44 -3 -44 -7z"/>
<path d="M1255 1815 c23 -8 83 -10 79 -3 -3 4 -24 8 -47 7 -23 0 -37 -2 -32
-4z"/>
<path d="M1280 1791 c8 -5 38 -11 65 -14 29 -4 44 -3 35 2 -8 5 -37 11 -65 14
-29 4 -44 3 -35 -2z"/>
<path d="M1306 1731 c-6 -9 27 -44 35 -37 2 2 58 -54 124 -124 66 -71 123
-128 127 -129 4 -1 3 11 -2 25 -6 14 -8 29 -5 34 3 5 -5 12 -17 16 -20 6 -173
142 -173 155 0 7 -71 69 -78 69 -3 0 -8 -4 -11 -9z m25 -18 c13 -16 12 -17 -3
-4 -10 7 -18 15 -18 17 0 8 8 3 21 -13z"/>
<path d="M1172 1595 c0 -11 3 -29 8 -40 11 -25 11 1 0 35 -6 20 -8 21 -8 5z"/>
<path d="M1630 1475 c0 -14 4 -25 9 -25 4 0 6 11 3 25 -2 14 -6 25 -8 25 -2 0
-4 -11 -4 -25z"/>
<path d="M1661 1474 c0 -11 3 -14 6 -6 3 7 2 16 -1 19 -3 4 -6 -2 -5 -13z"/>
<path d="M1200 1472 c0 -17 44 -100 69 -132 29 -36 26 -15 -3 23 -14 18 -34
53 -45 77 -11 25 -21 39 -21 32z"/>
<path d="M1180 1450 c0 -19 60 -124 67 -117 3 3 -4 19 -16 36 -12 16 -28 45
-36 63 -8 18 -14 26 -15 18z"/>
<path d="M1170 1400 c0 -15 39 -72 40 -58 0 4 -9 22 -20 40 -11 18 -20 26 -20
18z"/>
<path d="M1152 1370 c7 -11 17 -20 22 -20 5 0 1 9 -9 20 -10 11 -20 20 -22 20
-2 0 2 -9 9 -20z"/>
<path d="M1717 1283 c-4 -3 -7 -11 -7 -17 0 -6 5 -5 12 2 6 6 9 14 7 17 -3 3
-9 2 -12 -2z"/>
<path d="M1115 1235 c-16 -8 -23 -14 -14 -15 8 0 24 7 35 15 23 18 18 18 -21
0z"/>
<path d="M1150 1221 c-25 -7 -25 -7 6 -14 17 -3 42 -3 54 0 22 6 23 7 4 14
-23 9 -32 9 -64 0z m47 -7 c-3 -3 -12 -4 -19 -1 -8 3 -5 6 6 6 11 1 17 -2 13
-5z"/>
<path d="M1645 1210 c3 -5 11 -10 16 -10 6 0 7 5 4 10 -3 6 -11 10 -16 10 -6
0 -7 -4 -4 -10z"/>
<path d="M981 1164 c0 -11 3 -14 6 -6 3 7 2 16 -1 19 -3 4 -6 -2 -5 -13z"/>
<path d="M1299 1121 c-31 -10 -80 -34 -110 -53 -104 -69 -166 -96 -234 -103
-55 -6 -69 -5 -85 10 -27 24 -36 13 -20 -24 19 -46 34 -55 62 -37 65 42 139
57 273 55 104 -2 142 1 188 16 52 17 63 17 105 5 26 -7 88 -16 137 -19 69 -5
100 -12 129 -29 36 -21 40 -22 57 -6 14 13 16 20 7 40 -13 27 -28 32 -28 9 0
-22 -18 -18 -25 6 -10 32 -64 88 -104 108 -81 41 -258 52 -352 22z"/>
<path d="M987 1081 c-59 -35 -69 -44 -31 -31 25 9 97 60 84 59 -3 0 -26 -13
-53 -28z"/>
<path d="M1020 1063 c-47 -25 -71 -42 -55 -38 30 6 155 72 155 80 0 9 -15 3
-100 -42z"/>
<path d="M1111 1073 c-46 -20 -80 -38 -74 -40 5 -2 39 10 74 27 35 16 69 30
76 30 6 0 15 5 18 10 10 16 -5 12 -94 -27z"/>
<path d="M1420 952 c0 -5 43 -17 95 -27 78 -16 104 -17 148 -8 42 9 56 8 75
-3 12 -8 22 -11 22 -6 0 27 -125 52 -257 52 -46 0 -83 -4 -83 -8z m210 -11
c39 -6 42 -8 21 -15 -25 -9 -120 0 -155 14 -27 11 69 12 134 1z"/>
<path d="M1080 940 c-14 -4 -42 -8 -64 -9 -48 -1 -116 -40 -93 -52 17 -10 122
20 177 51 36 19 25 25 -20 10z m-69 -36 c-89 -28 -89 -28 -62 -5 16 15 36 21
65 20 l41 -1 -44 -14z"/>
<path d="M1200 915 c-85 -36 -160 -55 -224 -55 -33 0 -52 -7 -81 -30 -31 -25
-34 -31 -20 -36 21 -8 154 2 186 15 16 6 0 7 -53 4 -55 -4 -78 -3 -78 6 0 7
21 11 58 11 70 0 137 18 223 59 67 31 106 62 78 60 -8 -1 -48 -16 -89 -34z"/>
<path d="M1824 928 c3 -12 1 -15 -10 -11 -7 3 -14 0 -14 -5 0 -16 14 -22 29
-13 11 7 11 13 1 27 -9 15 -10 16 -6 2z"/>
<path d="M1385 849 c-27 -11 -39 -17 -25 -14 14 4 42 9 62 12 21 3 35 9 32 14
-7 12 -10 11 -69 -12z"/>
<path d="M1455 833 c-11 -2 -27 -6 -35 -9 -29 -10 13 -24 54 -18 25 4 36 3 32
-4 -8 -13 24 -20 154 -31 58 -5 113 -12 123 -16 9 -4 17 -4 17 0 0 6 -106 57
-147 69 -17 6 -23 3 -23 -8 0 -20 -47 -20 -115 0 l-50 14 60 -5 c41 -3 54 -2
40 4 -21 10 -76 12 -110 4z m2 -19 c-3 -3 -12 -4 -19 -1 -8 3 -5 6 6 6 11 1
17 -2 13 -5z"/>
<path d="M1800 805 c0 -15 35 -34 60 -34 24 1 24 1 -3 9 -16 5 -35 14 -43 21
-8 6 -14 8 -14 4z"/>
<path d="M1100 770 c-98 -6 -94 -6 64 -8 93 -1 167 0 165 2 -9 8 -131 11 -229
6z"/>
<path d="M1235 730 c11 -4 92 -9 180 -12 88 -3 142 -2 120 2 -54 10 -325 19
-300 10z"/>
<path d="M1218 696 c3 -5 115 -7 266 -4 144 3 275 2 291 -2 33 -8 -100 -12
-585 -16 -352 -3 -410 -6 -410 -16 0 -5 82 -8 183 -8 100 0 210 -5 244 -10 45
-7 102 -6 215 4 84 9 213 16 286 17 73 0 132 5 132 10 0 28 -62 34 -341 34
-169 0 -285 -4 -281 -9z m107 -35 l40 -9 -40 0 c-22 0 -62 3 -90 8 l-50 7 50
1 c28 1 68 -3 90 -7z"/>
<path d="M524 684 c-18 -14 -18 -14 6 -3 31 14 36 19 24 19 -6 0 -19 -7 -30
-16z"/>
<path d="M598 683 c6 -2 18 -2 25 0 6 3 1 5 -13 5 -14 0 -19 -2 -12 -5z"/>
<path d="M550 670 c-8 -5 -10 -10 -5 -10 6 0 17 5 25 10 8 5 11 10 5 10 -5 0
-17 -5 -25 -10z"/>
<path d="M628 663 c7 -3 16 -2 19 1 4 3 -2 6 -13 5 -11 0 -14 -3 -6 -6z"/>
</g>
</svg>
